<svg xmlns="http://www.w3.org/2000/svg" width="87" height="79" viewBox="0 0 87 79">
  <path fill="#ED4113" d="M0.0135266502,1.7543026 C-0.105732678,2.77738186 0.575646259,3.72175649 1.58180952,3.92790448 L8.97512019,5.55669223 L10.8750882,14.6263341 C10.8764282,14.632587 10.8777982,14.6388334 10.8791984,14.645073 L20.3018559,57.4445631 C20.5021143,58.3530654 21.30508,59.0002094 22.2327141,59.0002094 L75.5981237,59.0002094 C76.3114822,59.0103741 76.9752185,58.6347162 77.3349811,58.0167645 C77.6947437,57.3988128 77.6947437,56.634394 77.3349811,56.0164423 C76.9752185,55.3984906 76.3114822,55.0228326 75.5981237,55.033425 L23.8216724,55.033425 L22.0027917,46.7695571 L78.2915376,46.7695571 C79.2191535,46.7696062 80.0221176,46.12289 80.2224071,45.2144133 L86.9534254,14.6433116 C87.0827186,14.0562904 86.9395893,13.44213 86.5642601,12.9734235 C86.1889309,12.5047171 85.6219133,12.2320548 85.0225522,12.2320611 C61.4857068,12.2326607 37.9489623,12.2320611 14.4125376,12.2208177 L12.5820773,3.48427907 C12.4222007,2.72031079 11.8304225,2.12145189 11.0702082,1.95432043 L2.43148341,0.0524690025 C2.30290285,0.0218863451 2.17158972,0.00430880567 2.03951335,-1.44497045e-14 C1.0129866,-0.0300157281 0.132785978,0.731223331 0.0135266502,1.7543026 Z M15,16 C37.3334521,16.0109832 60.666966,16.0109832 83,16.0109832 L77.1672257,43 L20.8347089,43 L15,16 Z M34.5,64 C30.3793197,64 27,67.38604 27,71.5000199 C27,75.6138806 30.37926,79 34.5,79 C38.62074,79 42,75.6138806 42,71.5000199 C42,67.38604 38.6206764,64 34.5,64 Z M63.5,64 C59.3793209,64 56,67.38604 56,71.5000199 C56,75.6138806 59.3792652,79 63.5,79 C67.6207388,79 71,75.6138806 71,71.5000199 C71,67.38604 67.6206831,64 63.5,64 Z M34.5,68 C36.4555809,68 38,69.5364024 38,71.5 C38,73.4634712 36.4556021,75 34.5,75 C32.5444064,75 31,73.4634712 31,71.5 C31,69.5364024 32.5444275,68 34.5,68 Z M63.5,68 C65.4555748,68 67,69.5364024 67,71.5 C67,73.4634712 65.4556045,75 63.5,75 C61.5443998,75 60,73.4634712 60,71.5 C60,69.5364024 61.5444252,68 63.5,68 Z"/>
</svg>
