<svg xmlns="http://www.w3.org/2000/svg" width="92" height="78" viewBox="0 0 92 78">
  <path fill="#ED4113" d="M24,0 C13.63451,0 0,9.12267 0,27.53125 C0,37.71838 6.552977,47.3385 15.3125,55.875 C24.072023,64.4115 35.179037,71.92785 44.96875,77.71875 C45.6032468,78.1005338 46.3967532,78.1005338 47.03125,77.71875 C56.820964,71.92785 67.927977,64.4115 76.6875,55.875 C85.447023,47.3385 92,37.71838 92,27.53125 C92,9.12267 78.36549,0 68,0 C57.28298,0 50.355347,4.89107 46,10.71875 C41.644653,4.89107 34.71702,0 24,0 Z M24,4 C34.795457,4 40.656356,9.075 44.28125,15.03125 C44.6418982,15.6371287 45.294907,16.0083672 46,16.0083672 C46.705093,16.0083672 47.3581018,15.6371287 47.71875,15.03125 C51.343644,9.075 57.204543,4 68,4 C76.014306,4 88,11.08269 88,27.53125 C88,35.95701 82.262536,44.826 73.875,53 C65.775105,60.8936 55.371919,68.016 46,73.625 C36.628082,68.016 26.224896,60.8936 18.125,53 C9.737464,44.826 4,35.95701 4,27.53125 C4,11.08269 15.985694,4 24,4 Z"/>
</svg>
