<svg xmlns="http://www.w3.org/2000/svg" width="298" height="44" viewBox="0 0 298 44">
  <path fill="#1D222D" d="M23.1 42.12L30.06 14.4 36.78 42.12 49.2 42.12 60.18 7.10542736e-15 49.14 7.10542736e-15 43.02 30.66 35.82 7.10542736e-15 24.54 7.10542736e-15 17.04 30.66 10.98 7.10542736e-15 0 7.10542736e-15 10.68 42.12 23.1 42.12zM80.22 42.6C88.56 42.6 94.5 37.56 96.12 31.02L85.2 31.02C84.36 32.82 82.74 34.26 79.86 34.26 76.56 34.26 73.86 32.22 73.5 27.84L96.72 27.84C96.84 26.82 96.9 25.8 96.9 24.84 96.9 14.64 90 8.16 80.22 8.16 70.26 8.16 63.3 14.76 63.3 25.38 63.3 36 70.38 42.6 80.22 42.6zM86.4 22.14L73.56 22.14C74.16 18.42 76.74 16.38 80.1 16.38 83.52 16.38 86.4 18.48 86.4 22.14zM115.92 42.6C124.32 42.6 129.48 38.22 129.48 32.4 129.3 19.92 111.18 23.7 111.18 18.36 111.18 16.74 112.5 15.78 114.9 15.78 117.78 15.78 119.52 17.28 119.82 19.56L129.3 19.56C128.64 12.96 123.84 8.16 115.2 8.16 106.44 8.16 101.58 12.84 101.58 18.54 101.58 30.84 119.82 26.94 119.82 32.34 119.82 33.84 118.44 35.04 115.8 35.04 112.98 35.04 110.88 33.48 110.64 31.14L100.5 31.14C100.98 37.62 106.98 42.6 115.92 42.6zM146.04 42.12L146.04 27 152.4 27C163.14 27 167.88 20.52 167.88 13.56 167.88 5.82 162.72 7.10542736e-15 152.4 7.10542736e-15L135.78 7.10542736e-15 135.78 42.12 146.04 42.12zM151.62 18.84L146.04 18.84 146.04 8.28 151.62 8.28C155.7 8.28 157.44 10.32 157.44 13.56 157.44 16.8 155.7 18.84 151.62 18.84zM183.48 42.12L183.48 26.58C183.48 20.82 186.3 19.14 191.16 19.14L193.98 19.14 193.98 8.28C189.48 8.28 185.82 10.68 183.48 14.22L183.48 8.64 173.22 8.64 173.22 42.12 183.48 42.12zM213.78 42.6C222.12 42.6 228.06 37.56 229.68 31.02L218.76 31.02C217.92 32.82 216.3 34.26 213.42 34.26 210.12 34.26 207.42 32.22 207.06 27.84L230.28 27.84C230.4 26.82 230.46 25.8 230.46 24.84 230.46 14.64 223.56 8.16 213.78 8.16 203.82 8.16 196.86 14.76 196.86 25.38 196.86 36 203.94 42.6 213.78 42.6zM219.96 22.14L207.12 22.14C207.72 18.42 210.3 16.38 213.66 16.38 217.08 16.38 219.96 18.48 219.96 22.14zM249.48 42.6C257.88 42.6 263.04 38.22 263.04 32.4 262.86 19.92 244.74 23.7 244.74 18.36 244.74 16.74 246.06 15.78 248.46 15.78 251.34 15.78 253.08 17.28 253.38 19.56L262.86 19.56C262.2 12.96 257.4 8.16 248.76 8.16 240 8.16 235.14 12.84 235.14 18.54 235.14 30.84 253.38 26.94 253.38 32.34 253.38 33.84 252 35.04 249.36 35.04 246.54 35.04 244.44 33.48 244.2 31.14L234.06 31.14C234.54 37.62 240.54 42.6 249.48 42.6zM282.96 42.6C291.36 42.6 296.52 38.22 296.52 32.4 296.34 19.92 278.22 23.7 278.22 18.36 278.22 16.74 279.54 15.78 281.94 15.78 284.82 15.78 286.56 17.28 286.86 19.56L296.34 19.56C295.68 12.96 290.88 8.16 282.24 8.16 273.48 8.16 268.62 12.84 268.62 18.54 268.62 30.84 286.86 26.94 286.86 32.34 286.86 33.84 285.48 35.04 282.84 35.04 280.02 35.04 277.92 33.48 277.68 31.14L267.54 31.14C268.02 37.62 274.02 42.6 282.96 42.6z" transform="translate(.5 .88)"/>
</svg>
