<svg xmlns="http://www.w3.org/2000/svg" width="96" height="45" viewBox="0 0 96 45">
  <path fill="#1D222D" d="M7.68,0.91 L16.608,36.002 L26.28,0.91 L34.216,0.91 L43.206,35.816 L52.196,0.91 L59.76,0.91 L46.988,44 L38.99,44 L29.938,11.388 L20.328,44 L12.392,44.062 L0.178,0.91 L7.68,0.91 Z M79.83,0.91 C90.06,0.91 95.082,6.738 95.082,13.744 C95.082,19.8080482 91.1485234,26.3562166 80.232488,26.5131235 L79.83,26.516 L72.018,26.516 L72.018,44 L64.95,44 L64.95,0.91 L79.83,0.91 Z M79.83,6.676 L72.018,6.676 L72.018,20.75 L79.83,20.75 C85.348,20.75 87.828,18.084 87.828,13.744 C87.828,9.28 85.348,6.676 79.83,6.676 Z"/>
</svg>
